# xmcd
#
# Track frame offsets: 
#        183
#        25705
#        47093
#
# Disc length: 970 seconds
#
# Revision: 3
# Processed by: cddbd v1.5.2PL0 Copyright (c) Steve Scherf et al.
# Submitted via: ExactAudioCopy v0.99pb4
#
DISCID=1a03c803
DTITLE=George Michael - Father Figure (Single)
DYEAR=1987
DGENRE=Pop
TTITLE0=Father Figure
TTITLE1=Love's In Need Of Love Today (Live - Capital Radio, 1987)
TTITLE2=Father Figure (Instrumental)
EXTD=
EXTT0=
EXTT1=
EXTT2=
PLAYORDER=
